HIERARCHY
ROOT mPelvis
{
	OFFSET 0.000000 1.067000 -0.000000
	CHANNELS 6 Xposition Yposition Zposition Xrotation Yrotation Zrotation
	JOINT mTorso
	{
		OFFSET 0.000000 0.084000 -0.000000
		CHANNELS 3 Xrotation Yrotation Zrotation
		JOINT mChest
		{
			OFFSET 0.000000 0.205000 -0.015000
			CHANNELS 3 Xrotation Yrotation Zrotation
			JOINT mNeck
			{
				OFFSET 0.000000 0.251000 -0.010000
				CHANNELS 3 Xrotation Yrotation Zrotation
				JOINT mHead
				{
					OFFSET 0.000000 0.076000 0.000000
					CHANNELS 3 Xrotation Yrotation Zrotation
					JOINT mSkull
					{
						OFFSET 0.000000 0.079000 0.000000
						CHANNELS 3 Xrotation Yrotation Zrotation
						End Site
						{
							OFFSET -0.000000 -0.100000 0.000000
						}
					}
					JOINT mEyeRight
					{
						OFFSET -0.036000 0.079000 0.098000
						CHANNELS 3 Xrotation Yrotation Zrotation
						End Site
						{
							OFFSET -0.000000 -0.100000 0.000000
						}
					}
					JOINT mEyeLeft
					{
						OFFSET 0.036000 0.079000 0.098000
						CHANNELS 3 Xrotation Yrotation Zrotation
						End Site
						{
							OFFSET -0.000000 -0.100000 0.000000
						}
					}
					JOINT HEAD
					{
						OFFSET 0.000000 0.070000 0.020000
						CHANNELS 3 Xrotation Yrotation Zrotation
						End Site
						{
							OFFSET -0.000000 -0.100000 0.000000
						}
					}
				}
				JOINT NECK
				{
					OFFSET 0.000000 0.020000 0.000000
					CHANNELS 3 Xrotation Yrotation Zrotation
					End Site
					{
						OFFSET -0.000000 -0.100000 0.000000
					}
				}
			}
			JOINT mCollarLeft
			{
				OFFSET 0.085000 0.165000 -0.021000
				CHANNELS 3 Xrotation Yrotation Zrotation
				JOINT mShoulderLeft
				{
					OFFSET 0.079000 0.000000 -0.000000
					CHANNELS 3 Xrotation Yrotation Zrotation
					JOINT mElbowLeft
					{
						OFFSET 0.248000 0.000000 -0.000000
						CHANNELS 3 Xrotation Yrotation Zrotation
						JOINT mWristLeft
						{
							OFFSET 0.205000 0.000000 -0.000000
							CHANNELS 3 Xrotation Yrotation Zrotation
							JOINT L_HAND
							{
								OFFSET 0.050000 0.000000 0.010000
								CHANNELS 3 Xrotation Yrotation Zrotation
								End Site
								{
									OFFSET 0.000000 -0.100000 0.000000
								}
							}
						}
						JOINT L_LOWER_ARM
						{
							OFFSET 0.100000 0.000000 -0.000000
							CHANNELS 3 Xrotation Yrotation Zrotation
							End Site
							{
								OFFSET 0.000000 -0.100000 0.000000
							}
						}
					}
					JOINT L_UPPER_ARM
					{
						OFFSET 0.120000 0.010000 -0.000000
						CHANNELS 3 Xrotation Yrotation Zrotation
						End Site
						{
							OFFSET 0.000000 -0.100000 0.000000
						}
					}
				}
				JOINT L_CLAVICLE
				{
					OFFSET 0.000000 0.020000 0.020000
					CHANNELS 3 Xrotation Yrotation Zrotation
					End Site
					{
						OFFSET -0.000000 -0.100000 0.000000
					}
				}
			}
			JOINT mCollarRight
			{
				OFFSET -0.085000 0.165000 -0.021000
				CHANNELS 3 Xrotation Yrotation Zrotation
				JOINT mShoulderRight
				{
					OFFSET -0.079000 0.000000 0.000000
					CHANNELS 3 Xrotation Yrotation Zrotation
					JOINT mElbowRight
					{
						OFFSET -0.248000 0.000000 0.000000
						CHANNELS 3 Xrotation Yrotation Zrotation
						JOINT mWristRight
						{
							OFFSET -0.205000 0.000000 0.000000
							CHANNELS 3 Xrotation Yrotation Zrotation
							JOINT R_HAND
							{
								OFFSET -0.050000 0.000000 0.010000
								CHANNELS 3 Xrotation Yrotation Zrotation
								End Site
								{
									OFFSET 0.000000 -0.100000 0.000000
								}
							}
						}
						JOINT R_LOWER_ARM
						{
							OFFSET -0.100000 0.000000 0.000000
							CHANNELS 3 Xrotation Yrotation Zrotation
							End Site
							{
								OFFSET 0.000000 -0.100000 0.000000
							}
						}
					}
					JOINT R_UPPER_ARM
					{
						OFFSET -0.120000 0.010000 0.000000
						CHANNELS 3 Xrotation Yrotation Zrotation
						End Site
						{
							OFFSET 0.000000 -0.100000 0.000000
						}
					}
				}
				JOINT R_CLAVICLE
				{
					OFFSET 0.000000 0.020000 0.020000
					CHANNELS 3 Xrotation Yrotation Zrotation
					End Site
					{
						OFFSET -0.000000 -0.100000 0.000000
					}
				}
			}
			JOINT CHEST
			{
				OFFSET 0.000000 0.070000 0.028000
				CHANNELS 3 Xrotation Yrotation Zrotation
				End Site
				{
					OFFSET -0.000000 -0.100000 0.000000
				}
			}
			JOINT LEFT_PEC
			{
				OFFSET 0.082000 0.042000 0.119000
				CHANNELS 3 Xrotation Yrotation Zrotation
				End Site
				{
					OFFSET 0.000000 -0.100000 0.000000
				}
			}
			JOINT RIGHT_PEC
			{
				OFFSET -0.082000 0.042000 0.119000
				CHANNELS 3 Xrotation Yrotation Zrotation
				End Site
				{
					OFFSET 0.000000 -0.100000 0.000000
				}
			}
			JOINT UPPER_BACK
			{
				OFFSET 0.000000 0.017253 0.000000
				CHANNELS 3 Xrotation Yrotation Zrotation
				End Site
				{
					OFFSET -0.000000 -0.100000 0.000000
				}
			}
		}
		JOINT BELLY
		{
			OFFSET 0.000000 0.040000 0.028000
			CHANNELS 3 Xrotation Yrotation Zrotation
			End Site
			{
				OFFSET -0.000000 -0.100000 0.000000
			}
		}
		JOINT LOWER_BACK
		{
			OFFSET 0.000000 0.022848 -0.000000
			CHANNELS 3 Xrotation Yrotation Zrotation
			End Site
			{
				OFFSET -0.000000 -0.100000 0.000000
			}
		}
	}
	JOINT mHipRight
	{
		OFFSET -0.129000 -0.041000 0.034000
		CHANNELS 3 Xrotation Yrotation Zrotation
		JOINT mKneeRight
		{
			OFFSET 0.049000 -0.491000 -0.001000
			CHANNELS 3 Xrotation Yrotation Zrotation
			JOINT mAnkleRight
			{
				OFFSET -0.000000 -0.468000 -0.029000
				CHANNELS 3 Xrotation Yrotation Zrotation
				JOINT mFootRight
				{
					OFFSET 0.000000 -0.061000 0.112000
					CHANNELS 3 Xrotation Yrotation Zrotation
					JOINT mToeRight
					{
						OFFSET 0.000000 0.000000 0.109000
						CHANNELS 3 Xrotation Yrotation Zrotation
						End Site
						{
							OFFSET -0.000000 -0.100000 0.000000
						}
					}
				}
				JOINT R_FOOT
				{
					OFFSET 0.000000 -0.041000 0.077000
					CHANNELS 3 Xrotation Yrotation Zrotation
					End Site
					{
						OFFSET 0.000000 -0.100000 0.000000
					}
				}
			}
			JOINT R_LOWER_LEG
			{
				OFFSET -0.000000 -0.200000 -0.020000
				CHANNELS 3 Xrotation Yrotation Zrotation
				End Site
				{
					OFFSET -0.000000 -0.100000 0.000000
				}
			}
		}
		JOINT R_UPPER_LEG
		{
			OFFSET 0.050000 -0.220000 -0.020000
			CHANNELS 3 Xrotation Yrotation Zrotation
			End Site
			{
				OFFSET -0.000000 -0.100000 0.000000
			}
		}
	}
	JOINT mHipLeft
	{
		OFFSET 0.127000 -0.041000 0.034000
		CHANNELS 3 Xrotation Yrotation Zrotation
		JOINT mKneeLeft
		{
			OFFSET -0.046000 -0.491000 -0.001000
			CHANNELS 3 Xrotation Yrotation Zrotation
			JOINT mAnkleLeft
			{
				OFFSET 0.001000 -0.468000 -0.029000
				CHANNELS 3 Xrotation Yrotation Zrotation
				JOINT mFootLeft
				{
					OFFSET 0.000000 -0.061000 0.112000
					CHANNELS 3 Xrotation Yrotation Zrotation
					JOINT mToeLeft
					{
						OFFSET 0.000000 0.000000 0.109000
						CHANNELS 3 Xrotation Yrotation Zrotation
						End Site
						{
							OFFSET -0.000000 -0.100000 0.000000
						}
					}
				}
				JOINT L_FOOT
				{
					OFFSET 0.000000 -0.041000 0.077000
					CHANNELS 3 Xrotation Yrotation Zrotation
					End Site
					{
						OFFSET 0.000000 -0.100000 0.000000
					}
				}
			}
			JOINT L_LOWER_LEG
			{
				OFFSET -0.000000 -0.200000 -0.020000
				CHANNELS 3 Xrotation Yrotation Zrotation
				End Site
				{
					OFFSET -0.000000 -0.100000 0.000000
				}
			}
		}
		JOINT L_UPPER_LEG
		{
			OFFSET -0.050000 -0.220000 -0.020000
			CHANNELS 3 Xrotation Yrotation Zrotation
			End Site
			{
				OFFSET -0.000000 -0.100000 0.000000
			}
		}
	}
	JOINT PELVIS
	{
		OFFSET -0.000000 -0.020000 -0.010000
		CHANNELS 3 Xrotation Yrotation Zrotation
		End Site
		{
			OFFSET -0.000000 -0.100000 0.000000
		}
	}
	JOINT BUTT
	{
		OFFSET -0.000000 -0.100000 -0.060000
		CHANNELS 3 Xrotation Yrotation Zrotation
		End Site
		{
			OFFSET -0.000000 -0.100000 0.000000
		}
	}
}
MOTION
Frames: 4
Frame Time: 0.022222
0.000000 -13.463561 0.000001 2.953859 -0.000000 -0.000001 -3.106820 0.010436 0.227059 -2.303358 0.001808 0.091743 5.495303 -0.000001 -0.000001 -6.627912 0.000001 0.000001 0.000002 0.000022 -179.999991 -0.000001 0.000000 -0.000000 -0.000001 0.000000 -0.000000 -0.000001 0.000000 -0.000000 0.000000 0.000000 0.000000 0.484257 7.079915 -7.815854 0.937289 -13.410548 -69.467183 -0.000001 -27.527032 -0.000003 -46.596066 -1.257885 2.592701 -0.000001 -0.000002 0.000000 -0.000000 0.000000 0.000000 -0.000000 0.000000 0.000001 -0.000000 0.000001 -0.000000 -2.073036 -5.955729 9.743786 1.914280 22.057643 67.525846 -0.000001 27.527022 -0.000001 -46.516788 1.046657 -2.106269 -0.000000 0.000003 -0.000000 -0.000000 0.000002 -0.000001 -0.000001 -0.000000 0.000001 0.000001 -0.000001 0.000001 0.000000 0.000000 -0.000000 -0.000000 -0.000000 -0.000000 -0.000000 -0.000000 -0.000000 0.000000 0.000000 -0.000000 0.000000 -0.000001 0.000000 0.000000 -0.000001 0.000000 -33.485890 -1.893004 0.951067 66.315338 -1.920248 -3.378083 30.520697 2.121051 3.157401 0.000019 -0.000027 0.000050 -0.000001 -0.000000 0.000000 0.000016 -0.000028 0.000050 -0.000001 0.000002 0.000000 -0.000002 0.000002 0.000135 -33.362018 1.476428 -1.081546 66.043749 -1.789358 -3.435774 30.849827 3.193231 -4.312201 -0.000013 0.000024 -0.000038 0.000001 0.000000 -0.000000 -0.000013 0.000021 -0.000041 -0.000001 0.000002 -0.000001 0.000007 0.000002 -0.000099 -0.000000 -0.000000 -0.000000 -0.000000 -0.000000 -0.000000 
0.000000 -14.548135 0.000001 3.174409 -0.000000 -0.000001 -3.338803 0.010721 0.244031 -2.475316 0.001797 0.098594 5.179409 -0.000001 -0.000001 -7.850269 0.000001 0.000002 0.000002 0.000022 -179.999991 -0.000000 0.000000 -0.000000 -0.000000 0.000000 -0.000000 -0.000000 0.000000 -0.000000 -0.000000 0.000000 0.000000 0.507472 6.896443 -8.406954 1.217879 -14.397057 -68.139934 -0.000002 -29.642502 -0.000004 -50.479842 -1.606805 3.080372 0.000000 -0.000003 0.000000 0.000001 0.000002 -0.000000 -0.000001 0.000000 -0.000000 -0.000000 -0.000000 0.000001 -1.968787 -5.834220 10.242693 2.256556 22.528450 66.256810 -0.000001 29.642498 -0.000002 -50.409600 1.391810 -2.628592 -0.000001 -0.000002 -0.000000 -0.000001 -0.000001 0.000000 -0.000002 0.000000 0.000001 -0.000000 -0.000000 0.000000 0.000000 -0.000000 0.000000 -0.000001 -0.000000 0.000000 -0.000000 -0.000000 0.000000 0.000000 -0.000000 -0.000000 0.000000 0.000000 0.000000 0.000000 -0.000000 -0.000000 -36.097748 -2.058701 0.976215 72.352044 -2.261574 -3.531683 32.880425 2.350436 3.347795 0.000025 -0.000030 0.000052 -0.000001 0.000000 -0.000000 0.000027 -0.000029 0.000054 0.000006 0.000003 -0.000000 0.000005 0.000003 0.000135 -35.962790 1.613868 -1.126863 72.043360 -2.122508 -3.601770 33.252551 3.336371 -4.708511 -0.000012 0.000026 -0.000048 -0.000000 -0.000000 -0.000000 -0.000010 0.000027 -0.000049 0.000001 0.000002 0.000001 0.000004 0.000003 -0.000098 -0.000000 -0.000000 -0.000000 -0.000000 -0.000000 -0.000000 
0.000000 -15.636830 0.000001 3.395799 -0.000000 -0.000001 -3.571668 0.010938 0.261068 -2.647930 0.001763 0.105471 4.862313 -0.000001 -0.000001 -9.077317 0.000001 0.000002 0.000002 0.000022 -179.999991 0.000000 -0.000000 0.000000 0.000000 -0.000000 0.000000 0.000000 -0.000000 0.000000 -0.000000 0.000000 0.000000 0.528331 6.704280 -9.001593 1.524711 -15.381050 -66.795972 0.000000 -31.767466 -0.000005 -54.385299 -1.990402 3.546158 0.000005 0.000000 0.000001 0.000002 0.000000 0.000001 0.000002 0.000000 -0.000000 0.000000 -0.000000 0.000001 -1.864006 -5.704024 10.741526 2.612429 22.993787 64.975269 -0.000000 31.767476 -0.000002 -54.323944 1.774073 -3.129366 -0.000001 0.000001 0.000000 -0.000001 0.000000 -0.000000 -0.000000 -0.000000 0.000001 -0.000000 0.000000 0.000000 0.000000 0.000000 -0.000000 0.000000 0.000000 -0.000000 0.000000 0.000000 -0.000000 0.000000 0.000000 -0.000000 0.000000 -0.000001 -0.000000 0.000000 -0.000001 -0.000000 -38.722494 -2.226182 0.993851 78.446703 -2.620583 -3.649468 35.250821 2.588584 3.529425 0.000020 -0.000032 0.000061 -0.000001 0.000000 -0.000000 0.000018 -0.000033 0.000062 0.000004 0.000003 0.000000 -0.000002 0.000002 0.000135 -38.576229 1.753901 -1.166071 78.099941 -2.474518 -3.733094 35.667835 3.463351 -5.112443 -0.000019 0.000033 -0.000058 -0.000001 0.000000 -0.000001 -0.000016 0.000033 -0.000060 -0.000001 0.000002 0.000000 0.000000 0.000003 -0.000099 -0.000000 -0.000000 -0.000000 -0.000000 -0.000000 -0.000000 
0.000000 -16.725523 0.000001 3.617190 -0.000000 -0.000001 -3.804533 0.011086 0.278106 -2.820544 0.001709 0.112348 4.545216 -0.000001 -0.000001 -10.304130 0.000001 0.000002 0.000002 0.000022 -179.999991 0.000000 0.000000 -0.000000 0.000000 0.000000 -0.000000 0.000000 0.000000 -0.000000 0.000000 0.000000 0.000000 0.546560 6.503470 -9.597660 1.856995 -16.357770 -65.439995 -0.000002 -33.892444 -0.000003 -58.288575 -2.404805 3.984831 0.000001 -0.000001 0.000001 0.000002 0.000003 0.000000 -0.000000 -0.000000 0.000002 -0.000000 -0.000000 -0.000001 -1.759052 -5.564968 11.238831 2.980536 23.451516 63.686234 0.000002 33.892430 -0.000003 -58.235750 2.189617 -3.602973 0.000005 -0.000005 -0.000003 -0.000000 0.000003 -0.000001 -0.000001 -0.000000 0.000001 0.000000 -0.000001 0.000001 0.000000 -0.000000 0.000000 0.000000 -0.000000 0.000000 0.000001 -0.000000 0.000000 0.000000 -0.000000 0.000000 -0.000000 0.000000 -0.000000 -0.000000 0.000000 -0.000000 -41.347500 -2.394294 1.003793 84.542497 -2.990056 -3.728453 37.620938 2.834035 3.701075 0.000020 -0.000036 0.000067 -0.000000 0.000000 -0.000000 0.000018 -0.000036 0.000068 0.000001 0.000003 0.000000 0.000003 0.000002 0.000135 -41.189794 1.895576 -1.198853 84.157466 -2.838410 -3.826539 38.084278 3.573215 -5.521429 -0.000022 0.000036 -0.000060 -0.000000 0.000000 0.000002 -0.000020 0.000035 -0.000063 0.000002 0.000003 -0.000000 -0.000000 0.000003 -0.000099 -0.000000 -0.000000 -0.000000 -0.000000 -0.000000 -0.000000 
